<?xml version="1.0" encoding="utf-8"?>
<!-- Generator: Adobe Illustrator 25.0.0, SVG Export Plug-In . SVG Version: 6.00 Build 0)  -->
<svg version="1.1" id="Layer_1" xmlns="http://www.w3.org/2000/svg" xmlns:xlink="http://www.w3.org/1999/xlink" x="0px" y="0px"
	 viewBox="0 0 20 20" style="enable-background:new 0 0 20 20;" xml:space="preserve">
<style type="text/css">
	.st0{fill:none;stroke:#F27B66;stroke-width:2;stroke-linecap:round;stroke-linejoin:round;}
</style>
<path class="st0" d="M1,4.5C1,1.9,1,1,4.5,1S8,1.9,8,4.5S8,8,4.5,8S1,7.1,1,4.5z"/>
<path class="st0" d="M12,4.5C12,1.9,12,1,15.5,1S19,1.9,19,4.5S19,8,15.5,8S12,7.1,12,4.5z"/>
<path class="st0" d="M1,15.5C1,12.9,1,12,4.5,12S8,12.9,8,15.5S8,19,4.5,19S1,18.1,1,15.5z"/>
<path class="st0" d="M12,15.5c0-2.6,0-3.5,3.5-3.5s3.5,0.9,3.5,3.5s0,3.5-3.5,3.5S12,18.1,12,15.5z"/>
</svg>
